<svg width="24" height="24" viewBox="0 0 24 24" fill="none" xmlns="http://www.w3.org/2000/svg">
<g clip-path="url(#clip0_88_84700)">
<path d="M18.8519 18.8518C22.636 15.0676 22.636 8.93237 18.8519 5.14824C15.0678 1.36412 8.93251 1.36412 5.14839 5.14824C1.36427 8.93236 1.36427 15.0676 5.14839 18.8518C8.93251 22.6359 15.0678 22.6359 18.8519 18.8518Z" fill="#FF9866"/>
<path d="M9.67184 13.173C10.3155 13.173 10.8373 12.6512 10.8373 12.0075C10.8373 11.3639 10.3155 10.842 9.67184 10.842C9.02816 10.842 8.50635 11.3639 8.50635 12.0075C8.50635 12.6512 9.02816 13.173 9.67184 13.173Z" fill="white"/>
<path d="M15.4325 7.35405L10.8349 7.35059C9.58152 7.35059 8.53926 8.34162 8.50638 9.61581C8.50534 9.65008 8.53338 9.67777 8.56764 9.67811L13.1652 9.68088V9.68158C14.4187 9.68158 15.4609 8.69054 15.4938 7.41635C15.4948 7.38209 15.4668 7.35439 15.4325 7.35405Z" fill="white"/>
<path d="M8.56764 14.3221L13.1652 14.3186C14.4187 14.3186 15.4609 15.3096 15.4938 16.5838C15.4948 16.6181 15.4668 16.6458 15.4325 16.6461L10.8349 16.6489V16.6496C9.58152 16.6496 8.53926 15.6586 8.50638 14.3844C8.50534 14.3501 8.53338 14.3224 8.56764 14.3221Z" fill="white"/>
</g>
<defs>
<clipPath id="clip0_88_84700">
<rect width="20" height="20" fill="white" transform="translate(2 2)"/>
</clipPath>
</defs>
</svg>
