<?xml version="1.0" encoding="UTF-8"?>
<svg id="Laag_1" xmlns="http://www.w3.org/2000/svg" version="1.1" viewBox="0 0 595.28 841.89">
  <!-- Generator: Adobe Illustrator 29.8.2, SVG Export Plug-In . SVG Version: 2.1.1 Build 3)  -->
  <defs>
    <style>
      .st0 {
        fill: #4e80ed;
      }
    </style>
  </defs>
  <g>
    <path class="st0" d="M151.64,208.76c0-2.98.33-5.88.95-8.67h-59.19c-4.66,0-8.44,3.78-8.44,8.44v.46c0,4.66,3.78,8.44,8.44,8.44h59.19c-.61-2.79-.95-5.69-.95-8.67Z"/>
    <path class="st0" d="M246.84,200.09h-15.79c.61,2.79.95,5.69.95,8.67s-.33,5.88-.95,8.67h15.79c4.66,0,8.44-3.78,8.44-8.44v-.46c0-4.66-3.78-8.44-8.44-8.44Z"/>
  </g>
  <g>
    <path class="st0" d="M197.11,194.69h-13.08v13.55h13.08c.72,0,1.41-.33,2.09-.99.68-.66,1.23-1.55,1.67-2.69.44-1.13.66-2.38.66-3.73,0-1.75-.47-3.21-1.4-4.39-.94-1.17-1.94-1.76-3.02-1.76Z"/>
    <path class="st0" d="M191.82,172.34c-19.97,0-36.16,16.19-36.16,36.16s16.19,36.16,36.16,36.16,36.16-16.19,36.16-36.16-16.19-36.16-36.16-36.16ZM210.3,228.6c-.44.52-1,.85-1.67.98-.68.14-1.35.14-2.03,0-.68-.14-1.23-.33-1.67-.57-.68-.4-1.35-.99-2.03-1.76-.68-.78-1.22-1.82-1.64-3.13-.42-1.31-.63-3.01-.63-5.08,0-.68-.12-1.3-.36-1.88-.24-.58-.58-1.07-1.02-1.49-.44-.42-1-.74-1.67-.96-.68-.22-1.47-.33-2.39-.33h-11.17v11.58c0,1.04-.28,1.9-.84,2.6-.56.7-1.33,1.04-2.33,1.04-1.12,0-2.11-.35-2.99-1.04-.88-.7-1.31-1.56-1.31-2.6v-34.51c0-1.03.35-1.9,1.04-2.6.7-.7,1.56-1.04,2.6-1.04h17.2c2.07,0,4.01.55,5.82,1.64,1.81,1.1,3.27,2.61,4.39,4.54,1.11,1.93,1.67,4.15,1.67,6.66,0,1.51-.31,2.99-.93,4.42-.62,1.43-1.45,2.73-2.51,3.88-.73.8-1.52,1.46-2.37,2.01.62.43,1.18.9,1.65,1.42.74.82,1.31,1.69,1.73,2.63.42.94.67,1.94.75,3.02.16,1,.27,1.87.33,2.63.06.76.18,1.39.36,1.91.18.52.53.92,1.04,1.19.88.52,1.42,1.26,1.64,2.24.22.98-.01,1.84-.69,2.6Z"/>
  </g>
</svg>