<svg width="24" height="24" viewBox="0 0 25 24" fill="none" xmlns="http://www.w3.org/2000/svg">
<g clip-path="url(#clip0_88_84693)">
<path d="M12.2562 21.6948C17.6104 21.6948 21.9509 17.3543 21.9509 12.0001C21.9509 6.64588 17.6104 2.30542 12.2562 2.30542C6.90199 2.30542 2.56152 6.64588 2.56152 12.0001C2.56152 17.3543 6.90199 21.6948 12.2562 21.6948Z" fill="#FF9866"/>
<path d="M7.4633 10.8303C6.82154 10.8303 6.30127 11.3506 6.30127 11.9924C6.30127 12.6341 6.82154 13.1544 7.4633 13.1544C8.10507 13.1544 8.62534 12.6341 8.62534 11.9924C8.62534 11.3506 8.10507 10.8303 7.4633 10.8303Z" fill="white"/>
<path d="M13.206 7.35283L8.6226 7.34937C7.37333 7.34937 6.33384 8.33763 6.3013 9.60766C6.30026 9.64159 6.3283 9.66963 6.36222 9.66963L10.9456 9.67239V9.67309C12.1949 9.67309 13.2344 8.68482 13.2669 7.41479C13.268 7.38087 13.2399 7.35283 13.206 7.35283Z" fill="white"/>
<path d="M6.36222 14.2996L10.9456 14.2961C12.1949 14.2961 13.2344 15.2844 13.2669 16.5544C13.268 16.5884 13.2399 16.6164 13.206 16.6164L8.6226 16.6192V16.6199C7.37333 16.6199 6.33384 15.6316 6.3013 14.3616C6.30026 14.3276 6.3283 14.2996 6.36222 14.2996Z" fill="white"/>
<path d="M17.931 13.2244V13.8901H14.8115C14.8704 12.7938 15.4055 12.2587 16.1428 11.7952C16.6389 11.4819 17.1217 11.2341 17.1217 10.666C17.1217 10.2548 16.9196 9.98723 16.4886 9.98723C15.8687 9.98723 15.7773 10.4898 15.7839 10.8945L14.9746 10.7706C14.968 10.079 15.3661 9.34131 16.5146 9.34131C17.3696 9.34131 17.9241 9.83734 17.9241 10.6858C17.9241 11.4625 17.4347 11.8409 16.7624 12.2587C16.273 12.5588 15.8749 12.8004 15.7638 13.2244H17.9304H17.931Z" fill="white"/>
</g>
<defs>
<clipPath id="clip0_88_84693">
<rect width="20" height="20" fill="white" transform="translate(2.25635 2)"/>
</clipPath>
</defs>
</svg>
