<svg width="25" height="24" viewBox="0 0 25 24" fill="none" xmlns="http://www.w3.org/2000/svg">
<g clip-path="url(#clip0_88_84737)">
<path d="M18.9872 18.8229C22.7553 15.0547 22.7553 8.9453 18.9872 5.17713C15.219 1.40896 9.1096 1.40896 5.34143 5.17713C1.57326 8.94529 1.57326 15.0547 5.34143 18.8229C9.1096 22.591 15.219 22.591 18.9872 18.8229Z" fill="#E62058"/>
<path d="M14.7413 11.1692L10.1614 11.1658C8.91282 11.1658 7.87436 12.153 7.84182 13.4223C7.84079 13.4563 7.86882 13.4843 7.90275 13.4843L12.4827 13.4871V13.4878C13.7313 13.4878 14.7697 12.5005 14.8023 11.2312C14.8033 11.1973 14.7753 11.1692 14.7413 11.1692Z" fill="white"/>
<path d="M17.0628 7.69243L10.1619 7.68896C8.91331 7.68896 7.87485 8.67619 7.84231 9.94553C7.84127 9.97946 7.86931 10.0075 7.90324 10.0075L14.8041 10.0103V10.011C16.0527 10.011 17.0912 9.02373 17.1237 7.75439C17.1247 7.72046 17.0967 7.69243 17.0628 7.69243Z" fill="white"/>
<path d="M9.00245 16.949C9.64346 16.949 10.1631 16.4293 10.1631 15.7883C10.1631 15.1473 9.64346 14.6277 9.00245 14.6277C8.36144 14.6277 7.8418 15.1473 7.8418 15.7883C7.8418 16.4293 8.36144 16.949 9.00245 16.949Z" fill="white"/>
</g>
<defs>
<clipPath id="clip0_88_84737">
<rect width="20" height="20" fill="white" transform="translate(2.16406 2)"/>
</clipPath>
</defs>
</svg>
