<svg width="25" height="25" viewBox="0 0 25 25" fill="none" xmlns="http://www.w3.org/2000/svg">
<g clip-path="url(#clip0_1275_51009)">
<path d="M12.2564 21.8148C17.5854 21.8148 21.9054 17.4948 21.9054 12.1658C21.9054 6.83685 17.5854 2.51685 12.2564 2.51685C6.92743 2.51685 2.60742 6.83685 2.60742 12.1658C2.60742 17.4948 6.92743 21.8148 12.2564 21.8148Z" fill="#FEFCF9"/>
<path d="M7.87061 18.3204L10.1954 17.6277L10.7122 13.2409L7.87061 18.3204ZM12.3422 10.7254L13.2024 9.64162L8.78687 6.00806L10.9133 12.5254L12.3422 10.7254ZM10.9649 12.855L10.6135 15.8762L14.731 13.3403L13.8023 13.2205L10.9649 12.855ZM13.8971 11.0647L13.3225 9.82127L12.8078 10.4696L11.0687 12.6604L13.9449 13.0311L14.8612 13.1492L13.8971 11.0643V11.0647ZM16.1883 10.309L15.7227 11.6282L16.6418 12.46L16.1883 10.309ZM14.1259 11.0695L15.0197 13.0024L16.0325 10.1325L14.1259 11.0695Z" fill="#0C0C0F"/>
</g>
<defs>
<clipPath id="clip0_1275_51009">
<rect width="20" height="20" fill="white" transform="translate(2.25635 2.16577)"/>
</clipPath>
</defs>
</svg>
