<?xml version="1.0" encoding="UTF-8"?>
<svg id="rangeband_logo" xmlns="http://www.w3.org/2000/svg" viewBox="0 0 200 87.15">
  <defs>
    <style>
      .st0 { fill: #fff; }
    </style>
  </defs>
  <g>
    <path class="st0" d="M78.3,43.88c0-3.5.39-6.9,1.11-10.18H9.91c-5.47,0-9.91,4.44-9.91,9.91v.54c0,5.47,4.44,9.91,9.91,9.91h69.5c-.72-3.28-1.11-6.68-1.11-10.18Z"/>
    <path class="st0" d="M190.09,33.7h-18.55c.72,3.28,1.11,6.68,1.11,10.18s-.39,6.9-1.11,10.18h18.55c5.47,0,9.91-4.44,9.91-9.91v-.54c0-5.47-4.44-9.91-9.91-9.91Z"/>
  </g>
  <g>
    <path class="st0" d="M131.69,27.36h-15.36v15.92h15.36c.84,0,1.66-.39,2.45-1.16.79-.77,1.45-1.82,1.96-3.16.51-1.33.77-2.79.77-4.38,0-2.06-.55-3.77-1.65-5.15-1.1-1.38-2.28-2.07-3.54-2.07Z"/>
    <path class="st0" d="M125.48,1.11c-23.45,0-42.46,19.01-42.46,42.46s19.01,42.46,42.46,42.46,42.46-19.01,42.46-42.46S148.93,1.11,125.48,1.11ZM147.18,67.18c-.52.61-1.17.99-1.96,1.16-.8.16-1.59.16-2.38,0-.8-.16-1.45-.39-1.96-.67-.8-.47-1.59-1.16-2.38-2.07-.8-.91-1.44-2.14-1.93-3.68-.49-1.54-.74-3.53-.74-5.96,0-.79-.14-1.53-.42-2.21-.28-.68-.68-1.26-1.19-1.75-.51-.49-1.17-.86-1.96-1.12-.8-.26-1.73-.39-2.8-.39h-13.11v13.6c0,1.22-.33,2.23-.98,3.05-.65.82-1.57,1.23-2.73,1.23-1.31,0-2.48-.41-3.51-1.23-1.03-.82-1.54-1.83-1.54-3.05V23.57c0-1.21.41-2.23,1.23-3.05.82-.82,1.83-1.23,3.05-1.23h20.19c2.43,0,4.71.64,6.84,1.93,2.13,1.29,3.84,3.06,5.15,5.33,1.31,2.27,1.96,4.87,1.96,7.82,0,1.78-.36,3.51-1.09,5.19-.73,1.68-1.71,3.2-2.94,4.56-.85.93-1.78,1.71-2.78,2.36.73.51,1.39,1.06,1.94,1.67.86.96,1.54,1.99,2.03,3.08.49,1.1.78,2.28.88,3.54.19,1.17.32,2.2.39,3.09.07.89.21,1.64.42,2.24.21.61.62,1.08,1.23,1.4,1.03.61,1.67,1.48,1.93,2.63.26,1.15-.01,2.16-.81,3.05Z"/>
  </g>
</svg>


